<svg width="90" height="90" viewBox="0 0 90 90" fill="none" xmlns="http://www.w3.org/2000/svg">
<path d="M31.3523 2.96013C22.3599 6.07967 14.6049 12.0007 9.22632 19.8534C3.84775 27.7062 1.12913 37.0768 1.46981 46.5888C1.81048 56.1008 5.19247 65.2529 11.119 72.7008C17.0456 80.1486 25.2043 85.4997 34.3968 87.9679C41.8494 89.891 49.6575 89.9754 57.15 88.214C63.9374 86.6894 70.2125 83.4283 75.3609 78.75C80.7193 73.7321 84.6087 67.3486 86.6109 60.2859C88.7872 52.6055 89.1745 44.5284 87.7429 36.675H45.8929V54.0351H70.1297C69.6453 56.8039 68.6073 59.4466 67.0777 61.8049C65.5482 64.1632 63.5587 66.1887 61.2281 67.7601C58.2685 69.7178 54.9323 71.0351 51.4336 71.6273C47.9246 72.2798 44.3254 72.2798 40.8164 71.6273C37.2599 70.892 33.8955 69.4241 30.9375 67.3172C26.1854 63.9533 22.6172 59.1744 20.7422 53.6625C18.8354 48.0473 18.8354 41.9597 20.7422 36.3445C22.0769 32.4085 24.2833 28.8248 27.1969 25.8609C30.531 22.4068 34.7522 19.9378 39.3972 18.7247C44.0422 17.5117 48.9316 17.6015 53.5289 18.9843C57.1202 20.0868 60.4044 22.013 63.1195 24.6093C65.8523 21.8906 68.5804 19.1648 71.3039 16.432C72.7101 14.9625 74.2429 13.5633 75.6281 12.0586C71.4836 8.20176 66.6188 5.20068 61.3125 3.22732C51.6495 -0.28135 41.0764 -0.375642 31.3523 2.96013Z" fill="white"/>
<path d="M31.3524 2.96013C41.0756 -0.37791 51.6487 -0.2861 61.3125 3.22028C66.6198 5.20706 71.4824 8.22258 75.6211 12.0937C74.2149 13.5984 72.7313 15.0047 71.2969 16.4672C68.5688 19.1906 65.843 21.9047 63.1196 24.6093C60.4044 22.013 57.1203 20.0868 53.5289 18.9843C48.9331 17.5967 44.0439 17.5017 39.3977 18.7097C34.7514 19.9178 30.5277 22.3823 27.1899 25.8328C24.2764 28.7967 22.0699 32.3804 20.7352 36.3164L6.15942 25.0312C11.3767 14.6852 20.41 6.77123 31.3524 2.96013Z" fill="#E33629"/>
<path d="M2.29214 36.2109C3.07557 32.3282 4.37623 28.5682 6.15933 25.0312L20.7351 36.3445C18.8283 41.9597 18.8283 48.0473 20.7351 53.6625C15.8789 57.4125 11.0203 61.1813 6.15933 64.9688C1.69555 56.0835 0.33417 45.9598 2.29214 36.2109Z" fill="#F8BD00"/>
<path d="M45.893 36.668H87.743C89.1746 44.5214 88.7873 52.5985 86.611 60.2789C84.6087 67.3416 80.7194 73.7251 75.361 78.743C70.6571 75.0727 65.9321 71.4305 61.2282 67.7602C63.5603 66.1871 65.5508 64.1594 67.0804 61.7986C68.6099 59.4378 69.6471 56.7924 70.1297 54.0211H45.893C45.886 48.2414 45.893 42.4547 45.893 36.668Z" fill="#587DBD"/>
<path d="M6.15234 64.9687C11.0133 61.2187 15.8719 57.45 20.7281 53.6625C22.6069 59.1764 26.1802 63.9555 30.9375 67.3172C33.9047 69.4143 37.2764 70.8703 40.8375 71.5922C44.3465 72.2446 47.9457 72.2446 51.4547 71.5922C54.9534 70.9999 58.2896 69.6827 61.2492 67.725C65.9531 71.3953 70.6781 75.0375 75.382 78.7078C70.2344 83.3887 63.9592 86.6523 57.1711 88.1789C49.6787 89.9403 41.8706 89.8558 34.418 87.9328C28.5237 86.359 23.018 83.5846 18.2461 79.7836C13.1953 75.7736 9.07 70.7201 6.15234 64.9687Z" fill="#319F43"/>
</svg>
