<svg width="512" height="127" viewBox="0 0 512 127" fill="none" xmlns="http://www.w3.org/2000/svg">
<g clip-path="url(#clip0_4451_9)">
<path d="M191.639 72.9801H191.489L181.739 33.6401H169.999L160.049 72.5001H159.889L150.889 33.6601H138.369L153.469 90.7201H166.169L175.669 51.8901H175.829L185.499 90.7201H197.959L213.269 33.6601H200.969L191.639 72.9801ZM251.539 52.9701C250.339 51.4401 248.759 50.2501 246.949 49.5301C244.569 48.6301 242.029 48.2101 239.479 48.3001C237.199 48.3401 234.949 48.9001 232.919 49.9401C230.599 51.1001 228.679 52.9201 227.399 55.1701H227.159V33.6701H215.829V90.7301H227.159V69.0801C227.159 64.8701 227.849 61.8501 229.229 60.0101C230.609 58.1701 232.849 57.2501 235.939 57.2601C238.649 57.2601 240.549 58.1001 241.609 59.7801C242.669 61.4601 243.209 64.0001 243.209 67.4101V90.7401H254.539V65.3301C254.559 62.9801 254.329 60.6401 253.859 58.3401C253.489 56.4101 252.699 54.5801 251.539 52.9901V52.9701ZM298.269 81.5201V60.0601C298.269 57.5501 297.709 55.5401 296.599 54.0201C295.479 52.4901 293.999 51.2601 292.289 50.4401C290.449 49.5701 288.479 48.9901 286.449 48.7301C284.359 48.4401 282.249 48.2901 280.139 48.2901C277.839 48.2901 275.549 48.5101 273.299 48.9601C271.149 49.3701 269.079 50.1401 267.179 51.2401C265.379 52.2901 263.849 53.7401 262.709 55.4701C261.459 57.4601 260.769 59.7501 260.709 62.1001H272.039C272.249 59.8601 273.009 58.2601 274.279 57.3301C275.559 56.4001 277.339 55.8801 279.589 55.8801C280.539 55.8801 281.479 55.9401 282.419 56.0801C283.239 56.1901 284.029 56.4601 284.739 56.8801C285.409 57.2901 285.969 57.8701 286.339 58.5601C286.779 59.4701 286.979 60.4701 286.939 61.4701C286.999 61.9701 286.939 62.4701 286.749 62.9401C286.569 63.4101 286.279 63.8201 285.899 64.1501C284.999 64.8301 283.959 65.3101 282.849 65.5401C281.409 65.8901 279.939 66.1301 278.459 66.2601C276.799 66.4201 275.129 66.6401 273.429 66.9001C271.719 67.1701 270.029 67.5301 268.359 67.9801C266.759 68.3901 265.249 69.0801 263.879 70.0101C262.539 70.9601 261.449 72.2001 260.679 73.6501C259.789 75.4501 259.369 77.4401 259.449 79.4401C259.399 81.3301 259.769 83.2201 260.529 84.9501C261.209 86.4501 262.229 87.7601 263.509 88.7901C264.839 89.8301 266.359 90.5901 267.979 91.0301C269.779 91.5201 271.629 91.7701 273.489 91.7501C276.029 91.7501 278.559 91.3701 280.989 90.6401C283.419 89.9001 285.619 88.5501 287.389 86.7201C287.439 87.4001 287.529 88.0901 287.669 88.7601C287.799 89.4201 287.969 90.0801 288.189 90.7101H299.689C299.049 89.5201 298.669 88.2201 298.569 86.8801C298.359 85.1001 298.269 83.3101 298.279 81.5201H298.269ZM286.949 74.7301C286.939 75.5901 286.869 76.4401 286.749 77.2901C286.599 78.4001 286.229 79.4801 285.669 80.4501C285.009 81.5601 284.069 82.4801 282.949 83.1301C281.729 83.8801 279.999 84.2501 277.759 84.2501C276.879 84.2501 275.989 84.1701 275.129 84.0101C274.339 83.8801 273.579 83.5901 272.889 83.1701C272.249 82.7701 271.719 82.2101 271.369 81.5401C270.969 80.7501 270.779 79.8701 270.809 78.9801C270.779 78.0701 270.969 77.1601 271.369 76.3401C271.729 75.6701 272.229 75.0801 272.849 74.6201C273.509 74.1401 274.229 73.7801 275.009 73.5401C275.829 73.2701 276.669 73.0601 277.529 72.9001C278.439 72.7501 279.319 72.6001 280.239 72.5001C281.159 72.4001 282.029 72.2601 282.839 72.1001C283.629 71.9501 284.399 71.7501 285.159 71.5001C285.819 71.3001 286.429 70.9601 286.949 70.5001V74.7301ZM319.459 37.0201H308.129V49.4101H301.229V57.0001H308.099V81.3701C308.029 83.1101 308.379 84.8301 309.139 86.4001C309.789 87.6401 310.769 88.6701 311.979 89.3801C313.269 90.1001 314.689 90.5801 316.149 90.7701C317.799 91.0101 319.469 91.1301 321.139 91.1301C322.269 91.1301 323.409 91.1301 324.579 91.0501C325.649 91.0101 326.719 90.9001 327.769 90.7301V81.9201C327.219 82.0401 326.649 82.1201 326.089 82.1601C325.489 82.2101 324.899 82.2401 324.249 82.2401C322.339 82.2401 321.059 81.9101 320.409 81.2701C319.769 80.6301 319.459 79.3601 319.459 77.4401V56.9801H327.769V49.3901H319.439L319.459 37.0001V37.0201ZM366.349 72.6101C365.609 71.3101 364.589 70.2001 363.369 69.3301C362.089 68.4201 360.679 67.7101 359.199 67.2101C357.629 66.6901 356.019 66.2301 354.369 65.8601C352.719 65.4801 351.209 65.1401 349.659 64.8201C348.269 64.5401 346.889 64.1801 345.539 63.7401C344.479 63.4101 343.489 62.8801 342.629 62.1801C342.269 61.8801 341.979 61.5001 341.779 61.0701C341.589 60.6401 341.489 60.1701 341.509 59.7001C341.469 58.9701 341.689 58.2501 342.129 57.6701C342.549 57.1601 343.089 56.7501 343.689 56.4801C344.339 56.2101 345.019 56.0301 345.719 55.9601C346.409 55.9001 347.109 55.8701 347.809 55.8801C349.639 55.8301 351.449 56.2301 353.089 57.0401C354.569 57.8101 355.399 59.2901 355.559 61.4701H366.349C366.229 59.2201 365.559 57.0301 364.389 55.1101C363.339 53.4701 361.939 52.0901 360.279 51.0801C358.539 50.0301 356.639 49.3001 354.649 48.9201C352.509 48.4901 350.329 48.2801 348.149 48.2801C345.949 48.2801 343.759 48.4801 341.589 48.8801C339.569 49.2401 337.619 49.9401 335.839 50.9601C334.149 51.9301 332.729 53.3201 331.729 54.9901C330.619 56.9901 330.079 59.2601 330.169 61.5501C330.119 63.1601 330.509 64.7401 331.289 66.1501C332.029 67.4001 333.049 68.4701 334.269 69.2701C335.559 70.1301 336.969 70.8001 338.439 71.2701C340.009 71.7801 341.619 72.2201 343.269 72.5901C346.489 73.2101 349.649 74.0701 352.739 75.1501C355.009 76.0001 356.139 77.2701 356.139 78.9801C356.179 79.8701 355.919 80.7601 355.419 81.5001C354.949 82.1601 354.339 82.7001 353.629 83.1001C352.879 83.5101 352.079 83.8101 351.249 83.9801C350.419 84.1701 349.579 84.2601 348.729 84.2701C347.639 84.2701 346.559 84.1401 345.499 83.8701C344.509 83.6201 343.579 83.2101 342.739 82.6301C341.939 82.0601 341.269 81.3301 340.779 80.4701C340.259 79.5001 339.989 78.4101 340.019 77.3101H329.199C329.209 79.7401 329.859 82.1201 331.079 84.2201C332.179 86.0201 333.689 87.5301 335.469 88.6501C337.349 89.8001 339.419 90.6101 341.589 91.0301C343.899 91.5101 346.249 91.7601 348.609 91.7501C350.929 91.7501 353.249 91.5201 355.519 91.0701C357.659 90.6601 359.709 89.8501 361.549 88.6901C363.449 87.5101 364.999 85.8401 366.039 83.8601C367.079 81.8801 367.569 79.6601 367.459 77.4201C367.509 75.7501 367.129 74.0901 366.349 72.6201H366.369L366.349 72.6101ZM388.879 33.6501L367.309 90.7101H379.929L384.409 78.0101H405.739L410.049 90.7101H423.079L401.739 33.6701H388.889L388.879 33.6501ZM387.689 68.6501L395.119 47.7201H395.269L402.459 68.6501H387.679H387.689ZM462.249 55.0001C460.689 52.9601 458.699 51.2901 456.419 50.1201C453.819 48.8301 450.939 48.2001 448.039 48.2801C445.609 48.2501 443.209 48.7701 441.009 49.7901C438.819 50.8701 436.989 52.5701 435.759 54.6801H435.599V49.3901H424.809V105.17H436.139V85.5901H436.289C437.619 87.5701 439.459 89.1501 441.609 90.1801C443.819 91.2301 446.239 91.7601 448.679 91.7401C451.439 91.7901 454.159 91.1801 456.629 89.9501C458.849 88.8101 460.789 87.2001 462.309 85.2301C463.859 83.2001 465.009 80.9001 465.709 78.4401C466.459 75.8401 466.829 73.1501 466.819 70.4501C466.829 67.6001 466.459 64.7601 465.709 62.0201C465.019 59.4801 463.859 57.0901 462.269 54.9801L462.249 55.0001ZM454.989 75.0601C454.709 76.5401 454.149 77.9601 453.349 79.2301C451.989 81.1301 449.999 82.4801 447.719 83.0101C445.449 83.5501 443.059 83.2401 440.999 82.1501C439.749 81.4401 438.699 80.4301 437.919 79.2301C437.109 77.9501 436.549 76.5401 436.239 75.0601C435.889 73.4601 435.719 71.8301 435.719 70.1901C435.719 68.5301 435.869 66.8601 436.189 65.2301C436.479 63.7301 437.039 62.2901 437.829 60.9901C438.599 59.7701 439.639 58.7501 440.869 58.0101C442.289 57.1801 443.899 56.7701 445.539 56.8201C447.149 56.7801 448.739 57.1901 450.129 58.0101C451.379 58.7701 452.429 59.8101 453.209 61.0401C454.029 62.3501 454.609 63.8001 454.929 65.3101C455.279 66.9101 455.459 68.5501 455.449 70.1901C455.459 71.8201 455.309 73.4501 454.999 75.0501H454.979L454.989 75.0601ZM510.909 62.0701C510.229 59.5101 509.059 57.1101 507.469 55.0001C505.919 52.9601 503.919 51.2901 501.639 50.1201C499.029 48.8401 496.159 48.2101 493.249 48.2801C490.819 48.2501 488.419 48.7701 486.219 49.7901C484.029 50.8701 482.199 52.5701 480.969 54.6801H480.819V49.3901H470.009V105.17H481.329V85.5901H481.489C482.819 87.5701 484.649 89.1501 486.799 90.1801C489.009 91.2301 491.429 91.7601 493.869 91.7401C496.629 91.7901 499.349 91.1801 501.819 89.9501C504.039 88.8101 505.969 87.2001 507.489 85.2301C509.039 83.2001 510.189 80.9001 510.889 78.4401C511.639 75.8401 512.019 73.1601 512.009 70.4501C512.029 67.6101 511.669 64.7901 510.929 62.0501H510.909V62.0701ZM500.179 75.0601C499.899 76.5401 499.349 77.9601 498.539 79.2301C497.699 80.5101 496.559 81.5601 495.209 82.2901C493.869 83.0201 492.359 83.4001 490.829 83.4001C489.299 83.4001 487.789 83.0201 486.449 82.2901C485.109 81.5601 483.959 80.5101 483.129 79.2301C482.329 77.9501 481.759 76.5401 481.449 75.0601C481.109 73.4601 480.929 71.8301 480.929 70.1901C480.929 68.5301 481.079 66.8601 481.409 65.2301C481.719 63.7201 482.299 62.2901 483.129 60.9901C483.899 59.7801 484.939 58.7601 486.159 58.0101C487.579 57.1801 489.199 56.7701 490.829 56.8201C492.439 56.7801 494.039 57.1901 495.419 58.0101C496.669 58.7701 497.719 59.8101 498.499 61.0401C499.319 62.3501 499.899 63.8001 500.219 65.3101C500.569 66.9101 500.749 68.5501 500.739 70.1901C500.739 71.8201 500.559 73.4501 500.229 75.0501H500.179V75.0601Z" fill="#25D366"/>
<path d="M117.509 60.62C116.959 45.47 110.569 31.13 99.6891 20.58C88.8091 10.03 74.2791 4.09 59.1191 4H58.8291C48.6191 4 38.5891 6.63999 29.7191 11.69C20.8491 16.74 13.4391 24.01 8.23914 32.78C3.02914 41.55 0.199145 51.53 0.00914504 61.74C-0.170855 71.94 2.30915 82.02 7.19915 90.98L1.99915 122.08C1.99915 122.14 1.99915 122.21 2.01915 122.27C2.03915 122.33 2.06914 122.39 2.10914 122.44C2.14914 122.49 2.19915 122.53 2.25915 122.55C2.31915 122.58 2.37915 122.59 2.44915 122.59H2.53914L33.2991 115.75C41.2491 119.57 49.9491 121.55 58.7691 121.54H60.4491C68.2091 121.32 75.8392 119.56 82.9192 116.38C89.9892 113.19 96.3692 108.64 101.669 102.97C106.969 97.31 111.099 90.65 113.819 83.38C116.539 76.11 117.789 68.38 117.499 60.62H117.509ZM60.1691 111.32H58.7791C50.9891 111.32 43.3091 109.47 36.3891 105.88L34.8191 105.06L13.9591 109.99L17.8091 88.88L16.9191 87.37C12.6491 80.09 10.3491 71.82 10.2491 63.38C10.1491 54.94 12.2391 46.62 16.3291 39.24C20.4191 31.86 26.3591 25.67 33.5691 21.28C40.7791 16.89 49.0091 14.46 57.4491 14.22H58.8591C71.5991 14.26 83.8091 19.3 92.8691 28.26C101.929 37.22 107.099 49.37 107.279 62.11C107.459 74.85 102.629 87.15 93.8291 96.36C85.0291 105.57 72.9591 110.95 60.2291 111.35L60.1791 111.33L60.1691 111.32Z" fill="#25D366"/>
<path d="M38.3492 34.3899C37.6192 34.3999 36.9092 34.5599 36.2392 34.8599C35.5792 35.1599 34.9792 35.5799 34.4792 36.1099C33.0792 37.5499 29.1592 40.9999 28.9392 48.2599C28.7092 55.5199 33.7892 62.6999 34.4992 63.7099C35.2092 64.7199 44.1992 80.3999 58.9992 86.7599C67.6992 90.5099 71.5192 91.1498 73.9892 91.1498C75.0092 91.1498 75.7792 91.0398 76.5792 90.9998C79.2892 90.8298 85.4092 87.6999 86.7492 84.2899C88.0892 80.8799 88.1692 77.8999 87.8192 77.2999C87.4692 76.6999 86.4992 76.2699 85.0492 75.5099C83.5992 74.7499 76.4592 70.9298 75.1192 70.3998C74.6192 70.1698 74.0892 70.0299 73.5392 69.9899C73.1792 70.0099 72.8392 70.1099 72.5292 70.2999C72.2192 70.4799 71.9692 70.7399 71.7792 71.0399C70.5892 72.5199 67.8492 75.7499 66.9292 76.6799C66.7292 76.9099 66.4792 77.0999 66.2092 77.2299C65.9292 77.3599 65.6292 77.4299 65.3292 77.4299C64.7692 77.4099 64.2092 77.2599 63.7092 76.9899C59.3892 75.1499 55.4492 72.5299 52.0892 69.2399C48.9592 66.1499 46.2992 62.6099 44.1992 58.7399C43.3892 57.2399 44.1992 56.4599 44.9392 55.7599C45.6792 55.0599 46.4692 54.0899 47.2292 53.2399C47.8592 52.5199 48.3792 51.7199 48.7792 50.8599C48.9892 50.4599 49.0892 50.0099 49.0892 49.5599C49.0892 49.1099 48.9592 48.6699 48.7392 48.2699C48.3892 47.5199 45.7592 40.1299 44.5292 37.1699C43.5292 34.6399 42.3392 34.5499 41.2892 34.4799C40.4292 34.4199 39.4492 34.3899 38.4592 34.3599H38.3292" fill="#25D366"/>
</g>
<defs>
<clipPath id="clip0_4451_9">
<rect width="512.01" height="126.59" rx="8" fill="white"/>
</clipPath>
</defs>
</svg>
