<svg width="40" height="40" viewBox="0 0 40 40" fill="none" xmlns="http://www.w3.org/2000/svg">
<path d="M37.3051 18.7938C37.1647 18.4955 36.9492 18.2388 36.6796 18.049C36.41 17.8592 36.0957 17.7428 35.7676 17.7113C34.1316 17.5436 32.6145 16.7801 31.5051 15.5663C30.5538 14.496 29.9037 13.1924 29.6213 11.7886C29.3388 10.3848 29.4342 8.93115 29.8976 7.57627C30.0072 7.24926 30.0304 6.89947 29.9649 6.56086C29.8994 6.22225 29.7474 5.90632 29.5238 5.64377C29.3192 5.40122 29.0545 5.21665 28.7561 5.1085C28.4578 5.00036 28.1363 4.97243 27.8238 5.02752L27.8001 5.03127C25.6595 5.50217 23.7354 6.6692 22.3286 8.34986C20.9219 10.0305 20.1118 12.13 20.0251 14.32C19.0162 13.9484 17.9502 13.7555 16.8751 13.75C14.8844 13.7604 12.9479 14.3999 11.3427 15.5773C9.73741 16.7546 8.54555 18.4094 7.93755 20.305C6.19929 20.801 4.69898 21.9088 3.71334 23.4241C2.72769 24.9393 2.32319 26.7599 2.57444 28.55C2.82569 30.3401 3.71573 31.979 5.08043 33.1644C6.44512 34.3498 8.19242 35.0017 10.0001 35H23.7501C24.9611 35.0047 26.1552 34.715 27.2294 34.1557C28.3035 33.5964 29.2257 32.7844 29.9163 31.7895C30.607 30.7947 31.0454 29.6469 31.1939 28.445C31.3424 27.243 31.1965 26.023 30.7688 24.89C32.0734 24.682 33.3193 24.2007 34.4248 23.4775C35.5303 22.7543 36.4705 21.8057 37.1838 20.6938C37.367 20.4148 37.4745 20.0929 37.4958 19.7598C37.517 19.4267 37.4513 19.0938 37.3051 18.7938ZM23.7501 32.5H10.0001C8.74793 32.5021 7.54076 32.0335 6.61799 31.1871C5.69522 30.3408 5.12427 29.1785 5.01838 27.9309C4.9125 26.6832 5.27942 25.4413 6.04636 24.4516C6.8133 23.4618 7.92423 22.7965 9.1588 22.5875L9.98755 22.4475L10.1688 21.6275C10.508 20.1018 11.3573 18.7374 12.5766 17.7594C13.7958 16.7815 15.3121 16.2485 16.8751 16.2485C18.438 16.2485 19.9543 16.7815 21.1735 17.7594C22.3928 18.7374 23.2421 20.1018 23.5813 21.6275L23.7626 22.4475L24.5913 22.5888C25.8243 22.7994 26.9333 23.4652 27.6987 24.4546C28.4641 25.4439 28.8301 26.6845 28.7243 27.9309C28.6185 29.1773 28.0486 30.3385 27.1274 31.1846C26.2062 32.0308 25.0009 32.5002 23.7501 32.5ZM29.3313 22.4988H29.3051C28.3702 21.4532 27.1592 20.6928 25.8113 20.305C25.2244 18.4762 24.0899 16.8718 22.5613 15.7088C22.5488 15.5825 22.5163 15.4625 22.5101 15.3338C22.4014 13.7347 22.8011 12.1422 23.652 10.784C24.5028 9.42573 25.7613 8.37125 27.2476 7.77127C26.8557 9.43215 26.8715 11.1632 27.2938 12.8166C27.7161 14.47 28.5322 15.9967 29.6726 17.2663C30.9704 18.6777 32.6749 19.6509 34.5501 20.0513C33.9131 20.8172 33.1153 21.4335 32.2134 21.8565C31.3115 22.2795 30.3275 22.4988 29.3313 22.4988Z" fill="white"/>
</svg>
