<svg width="40" height="40" viewBox="0 0 40 40" fill="none" xmlns="http://www.w3.org/2000/svg">
<path d="M34.1287 15C33.684 14.9999 33.2438 15.089 32.8342 15.2621C32.4245 15.4351 32.0537 15.6886 31.7438 16.0075L31.2525 16.5138L30.7562 16.0075C30.4463 15.6885 30.0756 15.4349 29.6659 15.2617C29.2563 15.0885 28.816 14.9993 28.3713 14.9993C27.9265 14.9993 27.4862 15.0885 27.0766 15.2617C26.6669 15.4349 26.2962 15.6885 25.9862 16.0075C25.3539 16.6604 25.0004 17.5336 25.0004 18.4425C25.0004 19.3514 25.3539 20.2246 25.9862 20.8775L31.2525 26.25L36.5138 20.8775C37.1461 20.2246 37.4996 19.3514 37.4996 18.4425C37.4996 17.5336 37.1461 16.6604 36.5138 16.0075C36.2038 15.6886 35.833 15.4351 35.4233 15.2621C35.0137 15.089 34.5735 14.9999 34.1287 15ZM2.5 37.5H5V31.25C5.00198 29.593 5.6611 28.0044 6.83278 26.8328C8.00445 25.6611 9.59301 25.002 11.25 25H18.75C20.407 25.002 21.9956 25.6611 23.1672 26.8328C24.3389 28.0044 24.998 29.593 25 31.25V37.5H27.5V31.25C27.4967 28.9304 26.5738 26.7067 24.9335 25.0665C23.2933 23.4262 21.0696 22.5033 18.75 22.5H11.25C8.93037 22.5033 6.7067 23.4262 5.06647 25.0665C3.42624 26.7067 2.50331 28.9304 2.5 31.25V37.5ZM15 5C16.2361 5 17.4445 5.36656 18.4723 6.05331C19.5001 6.74007 20.3012 7.71619 20.7742 8.85823C21.2473 10.0003 21.3711 11.2569 21.1299 12.4693C20.8888 13.6817 20.2935 14.7953 19.4194 15.6694C18.5453 16.5435 17.4317 17.1388 16.2193 17.3799C15.0069 17.6211 13.7503 17.4973 12.6082 17.0242C11.4662 16.5512 10.4901 15.7501 9.80331 14.7223C9.11656 13.6945 8.75 12.4861 8.75 11.25C8.75 9.5924 9.40848 8.00269 10.5806 6.83058C11.7527 5.65848 13.3424 5 15 5ZM15 2.5C13.2694 2.5 11.5777 3.01318 10.1388 3.97464C8.69983 4.9361 7.57832 6.30267 6.91605 7.90152C6.25379 9.50037 6.08051 11.2597 6.41813 12.957C6.75575 14.6544 7.58911 16.2135 8.81282 17.4372C10.0365 18.6609 11.5956 19.4942 13.293 19.8319C14.9903 20.1695 16.7496 19.9962 18.3485 19.3339C19.9473 18.6717 21.3139 17.5502 22.2754 16.1112C23.2368 14.6723 23.75 12.9806 23.75 11.25C23.75 8.92936 22.8281 6.70376 21.1872 5.06282C19.5462 3.42187 17.3206 2.5 15 2.5Z" fill="white"/>
</svg>
