<svg width="40" height="40" viewBox="0 0 40 40" fill="none" xmlns="http://www.w3.org/2000/svg">
<path d="M20.0001 8.15L23.4501 15.125L24.0251 16.375L25.2751 16.5625L32.9751 17.675L27.5001 23.05L26.5626 23.9625L26.7876 25.2125L28.1001 32.875L21.2126 29.2625L20.0001 28.75L18.8376 29.3625L11.9501 32.925L13.2001 25.2625L13.4251 24.0125L12.5001 23.05L6.9751 17.6125L14.6751 16.5L15.9251 16.3125L16.5001 15.0625L20.0001 8.15ZM20.0001 2.5L14.3126 14.025L1.6001 15.8625L10.8001 24.8375L8.6251 37.5L20.0001 31.525L31.3751 37.5L29.2001 24.8375L38.4001 15.875L25.6876 14.025L20.0001 2.5Z" fill="white"/>
</svg>
