<svg width="46" height="43" viewBox="0 0 46 43" fill="none" xmlns="http://www.w3.org/2000/svg">
<g clip-path="url(#clip0_4379_54)">
<path d="M17.0191 14.1403L23 2.22859L28.9811 14.1408C29.275 14.7262 29.8369 15.1305 30.4853 15.2232L43.8241 17.1311L34.1937 26.352C33.7121 26.8131 33.492 27.484 33.6068 28.1409L35.8867 41.1869L23.9175 35.0075C23.3419 34.7104 22.6581 34.7104 22.0825 35.0075L10.1133 41.1869L12.3933 28.1404C12.508 27.4841 12.2883 26.8137 11.8073 26.3525L2.17592 17.1177L2.03527 16.1276L2.17593 17.1177L15.5131 15.223C16.1622 15.1307 16.7249 14.7262 17.0191 14.1403Z" stroke="#99CE8F" stroke-width="2"/>
</g>
<defs>
<clipPath id="clip0_4379_54">
<rect width="46" height="43" fill="white"/>
</clipPath>
</defs>
</svg>
