<svg width="24" height="24" viewBox="0 0 24 24" fill="none" xmlns="http://www.w3.org/2000/svg">
<path d="M9.28026 14.4421L9.28066 14.442C10.1882 14.2242 11.0943 14.1158 12 14.1158C12.9057 14.1158 13.8122 14.2242 14.7204 14.442C15.6284 14.6597 16.5385 14.9864 17.4511 15.4238C17.7812 15.5854 18.0347 15.8067 18.223 16.0891L18.2236 16.09C18.4119 16.3712 18.5 16.6611 18.5 16.9698V18.1158H5.5V16.9698C5.5 16.6608 5.58796 16.3707 5.77579 16.0895C5.96489 15.8067 6.21863 15.5852 6.5481 15.4237C7.46194 14.9857 8.37256 14.6591 9.28026 14.4421ZM11.9982 10.8848C11.3082 10.8844 10.7292 10.6439 10.2346 10.1492C9.73945 9.65412 9.49944 9.07506 9.5 8.38517C9.50056 7.6946 9.74091 7.11422 10.2354 6.61752C10.7284 6.12222 11.3067 5.88298 11.998 5.88577C12.6923 5.88857 13.2728 6.12949 13.7665 6.62033C14.2585 7.10957 14.4994 7.68865 14.5 8.38617C14.5006 9.08302 14.2599 9.66076 13.7673 10.1484C13.2724 10.6382 12.6916 10.8793 11.9982 10.8848Z" stroke="black"/>
</svg>
