<svg width="176" height="189" viewBox="0 0 176 189" fill="none" xmlns="http://www.w3.org/2000/svg">
<g clip-path="url(#clip0_3864_20)">
<path d="M173.299 133.927C172.453 131.552 171.464 129.254 170.523 127.124C169.075 123.849 167.558 120.567 166.091 117.395L165.974 117.143C152.889 88.8069 138.844 60.0817 124.231 31.7688L123.61 30.5661C122.12 27.6754 120.579 24.6858 118.997 21.7484C117.121 18.0304 114.845 14.528 112.21 11.3032C109.242 7.76317 105.533 4.91683 101.346 2.96451C97.156 1.01159 92.589 -0.000105121 87.9662 0.000488542C83.3433 0.00108221 78.7767 1.01395 74.5871 2.96794C70.4006 4.92141 66.693 7.76868 63.7254 11.3094C61.0931 14.5347 58.8186 18.0362 56.942 21.7525C55.3476 24.7167 53.7916 27.7338 52.2871 30.652L51.7112 31.7688C37.097 60.0844 23.0526 88.8083 9.96764 117.143L9.77658 117.555C8.33468 120.675 6.84399 123.903 5.41996 127.123C4.4784 129.251 3.49147 131.547 2.64407 133.928C0.217761 140.415 -0.555537 147.403 0.393935 154.263C1.40195 161.198 4.20602 167.748 8.52781 173.264C12.8535 178.784 18.5456 183.079 25.0409 185.723C29.9495 187.709 35.1965 188.724 40.4915 188.712C42.1547 188.712 43.8172 188.615 45.4694 188.422C52.1657 187.569 58.6248 185.39 64.4691 182.012C72.1335 177.706 79.7025 171.397 87.971 162.379C96.2396 171.397 103.809 177.706 111.473 182.012C117.317 185.39 123.776 187.569 130.473 188.422C132.125 188.615 133.788 188.711 135.451 188.712C140.746 188.724 145.993 187.709 150.901 185.723C157.397 183.079 163.089 178.783 167.414 173.263C171.736 167.748 174.541 161.198 175.549 154.263C176.497 147.403 175.724 140.414 173.299 133.927ZM87.971 143.757C77.7355 130.783 71.1672 118.734 68.8621 108.633C67.918 104.849 67.6951 100.92 68.2051 97.0528C68.6074 94.217 69.6489 91.5097 71.2511 89.1354C73.2235 86.5791 75.7562 84.5095 78.6544 83.0861C81.5543 81.6624 84.742 80.9222 87.9726 80.9224C91.2032 80.9227 94.3907 81.6633 97.2905 83.0874C100.188 84.5113 102.72 86.5811 104.692 89.1375C106.294 91.5127 107.335 94.2202 107.738 97.0563C108.248 100.925 108.024 104.855 107.079 108.641C104.771 118.74 98.2045 130.786 87.971 143.757ZM163.593 152.556C162.887 157.404 160.927 161.984 157.906 165.841C154.881 169.7 150.901 172.703 146.36 174.553C141.765 176.394 136.78 177.046 131.866 176.449C126.76 175.791 121.838 174.11 117.396 171.506C110.574 167.674 103.668 161.79 95.898 153.159C108.268 137.905 115.993 123.845 118.853 111.323C120.14 106.057 120.42 100.595 119.676 95.2261C119.001 90.5998 117.284 86.1873 114.654 82.3218C111.571 78.1483 107.552 74.7572 102.919 72.4217C98.2829 70.0844 93.1638 68.8668 87.9722 68.8665C82.7807 68.8663 77.6615 70.0835 73.0256 72.4203C68.3927 74.7554 64.373 78.1461 61.2904 82.3191C58.6608 86.1835 56.9434 90.5947 56.2678 95.2199C55.5232 100.587 55.8006 106.046 57.0857 111.31C59.9447 123.839 67.6697 137.901 80.0447 153.16C72.2737 161.79 65.368 167.674 58.5461 171.507C54.104 174.111 49.1824 175.791 44.0756 176.449C39.1618 177.046 34.1766 176.394 29.5817 174.553C25.0405 172.703 21.0606 169.7 18.0355 165.841C15.0149 161.983 13.0549 157.404 12.3497 152.556C11.6727 147.628 12.2488 142.61 14.0246 137.964C14.7002 136.067 15.4899 134.204 16.4686 131.992C17.8534 128.861 19.3228 125.679 20.7441 122.603L20.9351 122.189C33.9473 94.0137 47.914 65.4493 62.4485 37.2883L63.0272 36.1673C64.5069 33.2959 66.0374 30.3276 67.581 27.4596C69.058 24.5029 70.8453 21.7118 72.9129 19.1333C74.7462 16.9188 77.0461 15.1366 79.6482 13.9141C83.5719 12.0697 87.9972 11.5813 92.2288 12.5255C96.4604 13.4697 100.258 15.7931 103.026 19.1305C105.095 21.7072 106.883 24.4975 108.359 27.4541C109.888 30.2967 111.405 33.2382 112.872 36.0828L113.494 37.2897C128.027 65.4472 141.994 94.011 155.008 122.192L155.124 122.445C156.57 125.574 158.066 128.808 159.474 131.992C160.454 134.208 161.245 136.072 161.918 137.963C163.693 142.609 164.269 147.628 163.593 152.556Z" fill="white"/>
</g>
<defs>
<clipPath id="clip0_3864_20">
<rect width="175.942" height="189" fill="white"/>
</clipPath>
</defs>
</svg>
