<svg width="20" height="20" viewBox="0 0 20 20" fill="none" xmlns="http://www.w3.org/2000/svg">
<path fill-rule="evenodd" clip-rule="evenodd" d="M5.20767 13.0937C4.183 11.967 3.903 10.5417 4.02767 9.26837C4.165 7.8637 4.80567 6.51637 5.63967 5.82103C6.75434 4.89237 7.925 4.51103 8.941 4.32437C9.43581 4.23988 9.93406 4.17694 10.4343 4.1357C10.7037 4.11037 10.9763 4.08503 11.2383 4.0197C11.7903 3.8817 12.335 3.6577 12.7837 3.3017C12.989 3.13837 13.197 2.97303 13.4737 3.0037C13.5731 3.01476 13.6688 3.04807 13.7536 3.10116C13.8385 3.15425 13.9102 3.22575 13.9637 3.31037C16.097 6.68837 15.775 10.2744 13.993 12.533C13.103 13.6604 11.853 14.447 10.395 14.6797C9.123 14.8817 7.733 14.6557 6.33234 13.9224C6.20927 14.3049 6.11785 14.6969 6.059 15.0944C6.03398 15.2694 5.94045 15.4273 5.79899 15.5334C5.65752 15.6395 5.47971 15.6851 5.30467 15.66C5.12963 15.635 4.97169 15.5415 4.86561 15.4C4.75953 15.2586 4.71398 15.0807 4.739 14.9057C4.82167 14.329 4.979 13.715 5.20767 13.0937ZM9.181 5.6357C9.65034 5.5497 10.091 5.50837 10.519 5.46637C10.8683 5.43303 11.2203 5.39837 11.5617 5.31303C12.1365 5.17219 12.6871 4.94613 13.195 4.64237C14.647 7.38703 14.2417 10.065 12.9463 11.7077C12.2477 12.593 11.287 13.1877 10.1863 13.3624C9.19767 13.5197 8.053 13.3464 6.833 12.6784C7.57434 11.167 8.78634 9.71837 10.3643 8.9297C10.5226 8.85067 10.6429 8.712 10.699 8.54422C10.755 8.37644 10.742 8.19328 10.663 8.03503C10.584 7.87679 10.4453 7.75642 10.2775 7.70041C10.1097 7.6444 9.92658 7.65733 9.76834 7.73637C8.02967 8.6057 6.69767 10.109 5.83167 11.7124C5.40434 11.0124 5.27634 10.1984 5.355 9.3977C5.46767 8.2457 5.995 7.26103 6.493 6.84503C7.37834 6.10703 8.31167 5.7957 9.18167 5.6357H9.181Z" fill="#C9E7D5"/>
</svg>
