<svg width="80" height="20" viewBox="0 0 80 20" fill="none" xmlns="http://www.w3.org/2000/svg">
<path fill-rule="evenodd" clip-rule="evenodd" d="M5.20767 13.0937C4.183 11.967 3.903 10.5417 4.02767 9.26837C4.165 7.8637 4.80567 6.51637 5.63967 5.82103C6.75434 4.89237 7.925 4.51103 8.941 4.32437C9.43581 4.23988 9.93406 4.17694 10.4343 4.1357C10.7037 4.11037 10.9763 4.08503 11.2383 4.0197C11.7903 3.8817 12.335 3.6577 12.7837 3.3017C12.989 3.13837 13.197 2.97303 13.4737 3.0037C13.5731 3.01476 13.6688 3.04807 13.7536 3.10116C13.8385 3.15425 13.9102 3.22575 13.9637 3.31037C16.097 6.68837 15.775 10.2744 13.993 12.533C13.103 13.6604 11.853 14.447 10.395 14.6797C9.123 14.8817 7.733 14.6557 6.33234 13.9224C6.20927 14.3049 6.11785 14.6969 6.059 15.0944C6.03398 15.2694 5.94045 15.4273 5.79899 15.5334C5.65752 15.6395 5.47971 15.6851 5.30467 15.66C5.12963 15.635 4.97169 15.5415 4.86561 15.4C4.75953 15.2586 4.71398 15.0807 4.739 14.9057C4.82167 14.329 4.979 13.715 5.20767 13.0937ZM9.181 5.6357C9.65034 5.5497 10.091 5.50837 10.519 5.46637C10.8683 5.43303 11.2203 5.39837 11.5617 5.31303C12.1365 5.17219 12.6871 4.94613 13.195 4.64237C14.647 7.38703 14.2417 10.065 12.9463 11.7077C12.2477 12.593 11.287 13.1877 10.1863 13.3624C9.19767 13.5197 8.053 13.3464 6.833 12.6784C7.57434 11.167 8.78634 9.71837 10.3643 8.9297C10.5226 8.85067 10.6429 8.712 10.699 8.54422C10.755 8.37644 10.742 8.19328 10.663 8.03503C10.584 7.87679 10.4453 7.75642 10.2775 7.70041C10.1097 7.6444 9.92658 7.65733 9.76834 7.73637C8.02967 8.6057 6.69767 10.109 5.83167 11.7124C5.40434 11.0124 5.27634 10.1984 5.355 9.3977C5.46767 8.2457 5.995 7.26103 6.493 6.84503C7.37834 6.10703 8.31167 5.7957 9.18167 5.6357H9.181Z" fill="#5AB980"/>
<path fill-rule="evenodd" clip-rule="evenodd" d="M26.9063 5.20767C28.033 4.183 29.4583 3.903 30.7316 4.02767C32.1363 4.165 33.4836 4.80567 34.179 5.63967C35.1076 6.75434 35.489 7.925 35.6756 8.941C35.7601 9.43581 35.8231 9.93406 35.8643 10.4343C35.8896 10.7037 35.915 10.9763 35.9803 11.2383C36.1183 11.7903 36.3423 12.335 36.6983 12.7837C36.8616 12.989 37.027 13.197 36.9963 13.4737C36.9852 13.5731 36.9519 13.6688 36.8988 13.7536C36.8457 13.8385 36.7742 13.9102 36.6896 13.9637C33.3116 16.097 29.7256 15.775 27.467 13.993C26.3396 13.103 25.553 11.853 25.3203 10.395C25.1183 9.123 25.3443 7.733 26.0776 6.33234C25.6951 6.20927 25.3031 6.11785 24.9056 6.059C24.7306 6.03398 24.5727 5.94045 24.4666 5.79899C24.3605 5.65752 24.3149 5.47971 24.34 5.30467C24.365 5.12963 24.4585 4.97169 24.6 4.86561C24.7414 4.75952 24.9193 4.71398 25.0943 4.739C25.671 4.82167 26.285 4.979 26.9063 5.20767ZM34.3643 9.181C34.4503 9.65034 34.4916 10.091 34.5336 10.519C34.567 10.8683 34.6016 11.2203 34.687 11.5617C34.8278 12.1365 35.0539 12.6871 35.3576 13.195C32.613 14.647 29.935 14.2417 28.2923 12.9463C27.407 12.2477 26.8123 11.287 26.6376 10.1863C26.4803 9.19767 26.6536 8.053 27.3216 6.833C28.833 7.57434 30.2816 8.78634 31.0703 10.3643C31.1493 10.5226 31.288 10.6429 31.4558 10.699C31.6236 10.755 31.8067 10.742 31.965 10.663C32.1232 10.584 32.2436 10.4453 32.2996 10.2775C32.3556 10.1097 32.3427 9.92658 32.2636 9.76834C31.3943 8.02967 29.891 6.69767 28.2876 5.83167C28.9876 5.40434 29.8016 5.27634 30.6023 5.355C31.7543 5.46767 32.739 5.995 33.155 6.493C33.893 7.37834 34.2043 8.31167 34.3643 9.18167L34.3643 9.181Z" fill="#5AB980"/>
<path fill-rule="evenodd" clip-rule="evenodd" d="M54.7923 6.9063C55.817 8.03297 56.097 9.4583 55.9723 10.7316C55.835 12.1363 55.1943 13.4836 54.3603 14.179C53.2457 15.1076 52.075 15.489 51.059 15.6756C50.5642 15.7601 50.0659 15.8231 49.5657 15.8643C49.2963 15.8896 49.0237 15.915 48.7617 15.9803C48.2097 16.1183 47.665 16.3423 47.2163 16.6983C47.011 16.8616 46.803 17.027 46.5263 16.9963C46.4269 16.9852 46.3312 16.9519 46.2464 16.8988C46.1615 16.8457 46.0898 16.7742 46.0363 16.6896C43.903 13.3116 44.225 9.72563 46.007 7.46697C46.897 6.33963 48.147 5.55297 49.605 5.3203C50.877 5.1183 52.267 5.3443 53.6677 6.07763C53.7907 5.69511 53.8822 5.30313 53.941 4.90563C53.966 4.73059 54.0595 4.57266 54.201 4.46657C54.3425 4.36049 54.5203 4.31495 54.6953 4.33997C54.8704 4.36499 55.0283 4.45851 55.1344 4.59998C55.2405 4.74144 55.286 4.91926 55.261 5.0943C55.1783 5.67097 55.021 6.28497 54.7923 6.9063ZM50.819 14.3643C50.3497 14.4503 49.909 14.4916 49.481 14.5336C49.1317 14.567 48.7797 14.6016 48.4383 14.687C47.8635 14.8278 47.3129 15.0539 46.805 15.3576C45.353 12.613 45.7583 9.93497 47.0537 8.2923C47.7523 7.40697 48.713 6.8123 49.8137 6.63763C50.8023 6.4803 51.947 6.65363 53.167 7.32163C52.4257 8.83297 51.2137 10.2816 49.6357 11.0703C49.4774 11.1493 49.3571 11.288 49.301 11.4558C49.245 11.6236 49.258 11.8067 49.337 11.965C49.416 12.1232 49.5547 12.2436 49.7225 12.2996C49.8903 12.3556 50.0734 12.3427 50.2317 12.2636C51.9703 11.3943 53.3023 9.89097 54.1683 8.28763C54.5957 8.98763 54.7237 9.80163 54.645 10.6023C54.5323 11.7543 54.005 12.739 53.507 13.155C52.6217 13.893 51.6883 14.2043 50.8183 14.3643L50.819 14.3643Z" fill="#5AB980"/>
<path fill-rule="evenodd" clip-rule="evenodd" d="M73.0937 14.7923C71.967 15.817 70.5417 16.097 69.2684 15.9723C67.8637 15.835 66.5164 15.1943 65.821 14.3603C64.8924 13.2457 64.511 12.075 64.3244 11.059C64.2399 10.5642 64.1769 10.0659 64.1357 9.56566C64.1104 9.29633 64.085 9.02366 64.0197 8.76166C63.8817 8.20966 63.6577 7.665 63.3017 7.21633C63.1384 7.011 62.973 6.803 63.0037 6.52633C63.0148 6.42688 63.0481 6.33119 63.1012 6.24636C63.1543 6.16154 63.2258 6.08975 63.3104 6.03633C66.6884 3.903 70.2744 4.225 72.533 6.007C73.6604 6.897 74.447 8.147 74.6797 9.605C74.8817 10.877 74.6557 12.267 73.9224 13.6677C74.3049 13.7907 74.6969 13.8822 75.0944 13.941C75.2694 13.966 75.4273 14.0595 75.5334 14.201C75.6395 14.3425 75.6851 14.5203 75.66 14.6953C75.635 14.8704 75.5415 15.0283 75.4 15.1344C75.2586 15.2405 75.0807 15.286 74.9057 15.261C74.329 15.1783 73.715 15.021 73.0937 14.7923ZM65.6357 10.819C65.5497 10.3497 65.5084 9.909 65.4664 9.481C65.433 9.13166 65.3984 8.77966 65.313 8.43833C65.1722 7.86348 64.9461 7.31294 64.6424 6.805C67.387 5.353 70.065 5.75833 71.7077 7.05366C72.593 7.75233 73.1877 8.713 73.3624 9.81366C73.5197 10.8023 73.3464 11.947 72.6784 13.167C71.167 12.4257 69.7184 11.2137 68.9297 9.63566C68.8507 9.47742 68.712 9.35705 68.5442 9.30104C68.3764 9.24503 68.1933 9.25796 68.035 9.337C67.8768 9.41603 67.7564 9.55469 67.7004 9.72247C67.6444 9.89026 67.6573 10.0734 67.7364 10.2317C68.6057 11.9703 70.109 13.3023 71.7124 14.1683C71.0124 14.5957 70.1984 14.7237 69.3977 14.645C68.2457 14.5323 67.261 14.005 66.845 13.507C66.107 12.6217 65.7957 11.6883 65.6357 10.8183L65.6357 10.819Z" fill="#5AB980"/>
</svg>
