<svg width="87" height="65" viewBox="0 0 87 65" fill="none" xmlns="http://www.w3.org/2000/svg">
<path d="M30.1299 3.37267L30.5 3M30.5 3L2.58095 31.1107C2.20884 31.4854 2 31.992 2 32.5201V61C2 62.1046 2.89543 63 4 63H57C58.1046 63 59 62.1046 59 61V32.5201C59 31.992 58.7912 31.4854 58.419 31.1107L30.5 3Z" stroke="#1A520F" stroke-width="3"/>
<path d="M63.7273 18.2795L64 18M64 18L43.5685 38.9391C43.204 39.3126 43 39.8139 43 40.3358V61C43 62.1046 43.8954 63 45 63H83C84.1046 63 85 62.1046 85 61V40.3358C85 39.8139 84.796 39.3126 84.4315 38.9391L64 18Z" stroke="#1A520F" stroke-width="3"/>
</svg>
