<svg width="85" height="63" viewBox="0 0 85 63" fill="none" xmlns="http://www.w3.org/2000/svg">
<path d="M29.1299 2.37267L29.5 2M29.5 2L1.58095 30.1107C1.20884 30.4854 1 30.992 1 31.5201V60C1 61.1046 1.89543 62 3 62H56C57.1046 62 58 61.1046 58 60V31.5201C58 30.992 57.7912 30.4854 57.419 30.1107L29.5 2Z" stroke="#1D764A" stroke-width="2"/>
<path d="M62.7273 17.2795L63 17M63 17L42.5685 37.9391C42.204 38.3126 42 38.8139 42 39.3358V60C42 61.1046 42.8954 62 44 62H82C83.1046 62 84 61.1046 84 60V39.3358C84 38.8139 83.796 38.3126 83.4315 37.9391L63 17Z" stroke="#1D764A" stroke-width="2"/>
</svg>
