<svg width="40" height="40" viewBox="0 0 40 40" fill="none" xmlns="http://www.w3.org/2000/svg">
<path d="M19.9996 8.15L23.4496 15.125L24.0246 16.375L25.2746 16.5625L32.9746 17.675L27.4996 23.05L26.5621 23.9625L26.7871 25.2125L28.0996 32.875L21.2121 29.2625L19.9996 28.75L18.8371 29.3625L11.9496 32.925L13.1996 25.2625L13.4246 24.0125L12.4996 23.05L6.97461 17.6125L14.6746 16.5L15.9246 16.3125L16.4996 15.0625L19.9996 8.15ZM19.9996 2.5L14.3121 14.025L1.59961 15.8625L10.7996 24.8375L8.62461 37.5L19.9996 31.525L31.3746 37.5L29.1996 24.8375L38.3996 15.875L25.6871 14.025L19.9996 2.5Z" fill="#047C36"/>
</svg>
