<svg width="130" height="62" viewBox="0 0 130 62" fill="none" xmlns="http://www.w3.org/2000/svg">
<path d="M113.639 21.7256V12.5894C113.639 11.6751 112.513 11.2403 111.898 11.9173L102.385 22.3977C102.195 22.6065 101.926 22.7256 101.644 22.7256H65C63.3431 22.7256 62 24.0687 62 25.7256V55C62 56.6569 63.3431 58 65 58H125C126.657 58 128 56.6569 128 55V25.7256C128 24.0687 126.657 22.7256 125 22.7256H114.639C114.086 22.7256 113.639 22.2779 113.639 21.7256Z" stroke="#1A520F" stroke-width="3"/>
<path d="M19.843 47.093V59.3989C19.843 60.3147 20.9719 60.7487 21.5854 60.0687L33.897 46.4231C34.0867 46.213 34.3565 46.093 34.6395 46.093H80C82.2091 46.093 84 44.3022 84 42.093V6C84 3.79086 82.2091 2 80 2H6C3.79086 2 2 3.79086 2 6V42.093C2 44.3022 3.79086 46.093 6 46.093H18.843C19.3952 46.093 19.843 46.5407 19.843 47.093Z" stroke="#1A520F" stroke-width="3"/>
</svg>
