<svg width="142" height="62" viewBox="0 0 142 62" fill="none" xmlns="http://www.w3.org/2000/svg">
<path d="M126.639 24.7256V15.5894C126.639 14.6751 125.513 14.2403 124.898 14.9173L115.385 25.3977C115.195 25.6065 114.926 25.7256 114.644 25.7256H76C75.4477 25.7256 75 26.1733 75 26.7256V60C75 60.5523 75.4477 61 76 61H140C140.552 61 141 60.5523 141 60V26.7256C141 26.1733 140.552 25.7256 140 25.7256H127.639C127.086 25.7256 126.639 25.2779 126.639 24.7256Z" stroke="#1D764A" stroke-width="2"/>
<path d="M18.843 46.093V58.3989C18.843 59.3147 19.9719 59.7487 20.5854 59.0687L32.897 45.4231C33.0867 45.213 33.3565 45.093 33.6395 45.093H82C82.5523 45.093 83 44.6453 83 44.093V2C83 1.44772 82.5523 1 82 1H2C1.44772 1 1 1.44772 1 2V44.093C1 44.6453 1.44771 45.093 2 45.093H17.843C18.3952 45.093 18.843 45.5407 18.843 46.093Z" stroke="#1D764A" stroke-width="2"/>
</svg>
